<?xml version="1.0" standalone="no"?>
<!DOCTYPE svg PUBLIC "-//W3C//DTD SVG 20010904//EN"
 "http://www.w3.org/TR/2001/REC-SVG-20010904/DTD/svg10.dtd">
<svg version="1.0" xmlns="http://www.w3.org/2000/svg"
 width="700.000000pt" height="700.000000pt" viewBox="0 0 700.000000 700.000000"
 preserveAspectRatio="xMidYMid meet">
<metadata>
Created by potrace 1.14, written by Peter Selinger 2001-2017
</metadata>
<g transform="translate(0.000000,700.000000) scale(0.100000,-0.100000)"
fill="#000000" stroke="none">
<path d="M0 3500 l0 -3500 3500 0 3500 0 0 3500 0 3500 -3500 0 -3500 0 0
-3500z m975 2685 c25 -4 48 -13 51 -19 2 -6 8 -67 14 -135 50 -597 363 -1177
825 -1527 139 -106 220 -152 614 -350 404 -202 679 -352 843 -460 l98 -63 2
802 3 802 40 7 c82 15 287 9 392 -11 662 -128 1268 -680 1688 -1536 501 -1022
728 -2121 574 -2775 -11 -47 -23 -90 -27 -97 -7 -11 -20 -10 -118 12 -19 4
-21 14 -27 117 -14 261 -96 557 -229 822 -176 354 -442 649 -766 850 -48 29
-267 143 -487 254 -396 199 -643 334 -803 438 -45 30 -85 54 -87 54 -3 0 -5
-358 -5 -795 0 -748 -1 -796 -17 -803 -10 -4 -103 -7 -208 -6 -181 0 -195 2
-308 32 -356 96 -670 291 -973 604 -269 278 -499 629 -692 1056 -353 781 -534
1471 -549 2092 -6 240 4 373 37 515 25 108 37 138 54 132 7 -3 35 -9 61 -12z"/>
</g>
</svg>
