<svg width="1440" height="286" viewBox="0 0 1440 286" fill="none" xmlns="http://www.w3.org/2000/svg">
<path d="M45.8 303L33.2 263.1H-36.7L-49.3 303H-85L-16.9 99H14.9L83.3 303H45.8ZM-17.2 200.7L-26.5 230.1H22.7L13.4 200.7L-1.6 149.1L-17.2 200.7ZM221.246 182.4C211.846 182.4 202.846 183.9 194.246 186.9C185.846 189.7 177.746 194.3 169.946 200.7V303H135.446V150.9H168.146V174.3C178.346 164.7 187.446 157.9 195.446 153.9C203.446 149.9 212.046 147.9 221.246 147.9V182.4ZM303.362 218.1V235.8C303.362 248.6 305.662 258.2 310.262 264.6C314.862 271 322.262 274.2 332.462 274.2C337.462 274.2 343.062 273.6 349.262 272.4C355.662 271 362.562 268.9 369.962 266.1L379.862 295.2C370.862 298.8 362.362 301.5 354.362 303.3C346.362 305.1 338.462 306 330.662 306C310.662 306 295.362 299.6 284.762 286.8C274.162 274 268.862 257 268.862 235.8V218.1C268.862 196.7 274.162 179.7 284.762 167.1C295.362 154.3 310.662 147.9 330.662 147.9C338.262 147.9 345.962 148.8 353.762 150.6C361.562 152.4 369.762 155 378.362 158.4L368.462 188.1C354.062 182.5 342.062 179.7 332.462 179.7C322.262 179.7 314.862 182.9 310.262 189.3C305.662 195.5 303.362 205.1 303.362 218.1ZM511.334 180C506.334 180 500.634 181.2 494.234 183.6C487.834 186 480.234 190.7 471.434 197.7V303H436.934V81H471.434V169.8C480.634 162 489.234 156.4 497.234 153C505.234 149.6 513.434 147.9 521.834 147.9C536.434 147.9 547.534 152.6 555.134 162C562.734 171.2 566.534 184.2 566.534 201V303H532.034V205.2C532.034 188.4 525.134 180 511.334 180ZM673.03 122.1H636.73V86.4H673.03V122.1ZM672.13 303H637.63V150.9H672.13V303ZM836.661 297.9C831.461 300.3 825.461 302.2 818.661 303.6C811.861 305.2 804.961 306 797.961 306C786.361 306 777.061 303.6 770.061 298.8C763.061 294 757.961 287.3 754.761 278.7C751.761 270.1 750.261 260.3 750.261 249.3V180.9H725.661V150.9H750.261V111.3H784.761V150.9H832.161V180.9H784.761V249.3C784.761 258.5 786.461 264.9 789.861 268.5C793.461 271.9 798.561 273.6 805.161 273.6C808.361 273.6 811.761 273.3 815.361 272.7C819.161 271.9 823.361 270.6 827.961 268.8L836.661 297.9ZM1005.4 294.3C994.999 298.5 985.199 301.5 975.999 303.3C966.799 305.1 958.099 306 949.899 306C927.299 306 910.199 299.6 898.599 286.8C886.999 274 881.199 257 881.199 235.8V217.8C881.199 203.6 883.799 191.3 888.999 180.9C894.199 170.5 901.599 162.4 911.199 156.6C920.799 150.8 932.099 147.9 945.099 147.9C955.699 147.9 965.599 150.1 974.799 154.5C984.199 158.7 991.799 165.4 997.599 174.6C1003.6 183.6 1006.6 195.2 1006.6 209.4C1006.6 213.6 1006.3 218.1 1005.7 222.9C1005.1 227.5 1004.1 232.4 1002.7 237.6H914.499C914.899 250 917.999 259.3 923.799 265.5C929.599 271.7 938.899 274.8 951.699 274.8C958.499 274.8 965.499 274 972.699 272.4C980.099 270.8 987.699 268.4 995.499 265.2L1005.4 294.3ZM945.099 177C935.899 177 928.699 180 923.499 186C918.499 191.8 915.599 200.2 914.799 211.2H972.399C972.599 210.2 972.699 209.3 972.699 208.5C972.699 207.5 972.699 206.6 972.699 205.8C972.699 196.2 969.999 189 964.599 184.2C959.199 179.4 952.699 177 945.099 177ZM1098.24 218.1V235.8C1098.24 248.6 1100.54 258.2 1105.14 264.6C1109.74 271 1117.14 274.2 1127.34 274.2C1132.34 274.2 1137.94 273.6 1144.14 272.4C1150.54 271 1157.44 268.9 1164.84 266.1L1174.74 295.2C1165.74 298.8 1157.24 301.5 1149.24 303.3C1141.24 305.1 1133.34 306 1125.54 306C1105.54 306 1090.24 299.6 1079.64 286.8C1069.04 274 1063.74 257 1063.74 235.8V218.1C1063.74 196.7 1069.04 179.7 1079.64 167.1C1090.24 154.3 1105.54 147.9 1125.54 147.9C1133.14 147.9 1140.84 148.8 1148.64 150.6C1156.44 152.4 1164.64 155 1173.24 158.4L1163.34 188.1C1148.94 182.5 1136.94 179.7 1127.34 179.7C1117.14 179.7 1109.74 182.9 1105.14 189.3C1100.54 195.5 1098.24 205.1 1098.24 218.1ZM1323.32 297.9C1318.12 300.3 1312.12 302.2 1305.32 303.6C1298.52 305.2 1291.62 306 1284.62 306C1273.02 306 1263.72 303.6 1256.72 298.8C1249.72 294 1244.62 287.3 1241.42 278.7C1238.42 270.1 1236.92 260.3 1236.92 249.3V180.9H1212.32V150.9H1236.92V111.3H1271.42V150.9H1318.82V180.9H1271.42V249.3C1271.42 258.5 1273.12 264.9 1276.52 268.5C1280.12 271.9 1285.22 273.6 1291.82 273.6C1295.02 273.6 1298.42 273.3 1302.02 272.7C1305.82 271.9 1310.02 270.6 1314.62 268.8L1323.32 297.9ZM1491.76 304.5C1481.56 304.5 1473.36 302.4 1467.16 298.2C1461.16 294 1456.76 288.8 1453.96 282.6C1445.36 290.6 1437.06 296.5 1429.06 300.3C1421.06 304.1 1412.46 306 1403.26 306C1389.86 306 1379.96 301.7 1373.56 293.1C1367.36 284.5 1364.26 273.6 1364.26 260.4C1364.26 251.6 1365.86 243.9 1369.06 237.3C1372.46 230.5 1377.96 225.2 1385.56 221.4C1393.16 217.6 1403.56 215.7 1416.76 215.7C1421.96 215.7 1427.36 216.1 1432.96 216.9C1438.56 217.5 1444.16 218.3 1449.76 219.3V201.6C1449.76 193.2 1447.46 187.5 1442.86 184.5C1438.26 181.3 1432.06 179.7 1424.26 179.7C1418.26 179.7 1411.66 180.5 1404.46 182.1C1397.46 183.7 1389.86 186.2 1381.66 189.6L1371.76 160.2C1391.96 152 1410.26 147.9 1426.66 147.9C1441.46 147.9 1452.86 150.4 1460.86 155.4C1469.06 160.4 1474.76 167 1477.96 175.2C1481.16 183.4 1482.76 192.2 1482.76 201.6V260.1C1482.76 263.1 1483.56 266 1485.16 268.8C1486.96 271.4 1490.36 272.7 1495.36 272.7H1498.66V304.5H1491.76ZM1397.56 259.8C1397.56 265.2 1398.76 269.5 1401.16 272.7C1403.56 275.7 1407.06 277.2 1411.66 277.2C1416.26 277.2 1421.46 276 1427.26 273.6C1433.06 271.2 1440.56 265.6 1449.76 256.8V243.9C1439.36 242.1 1429.16 241.2 1419.16 241.2C1411.36 241.2 1405.76 242.8 1402.36 246C1399.16 249.2 1397.56 253.8 1397.56 259.8Z" fill="#7C7C7C"/>
</svg>
